ply
format ascii 1.0
comment made by ViMouse software
comment This file is a saved stereo-reconstruction
element vertex 10
property float x
property float y
property float z
property uchar red
property uchar green
property uchar blue
element face 0
property list uchar int vertex_index
property uchar red
property uchar green
property uchar blue
element edge 0
property int vertex1
property int vertex2
property uchar red
property uchar green
property uchar blue
end_header
1639 -1887 0 255 0 0
1617.53 -1888.55 -2.7044 0 255 0
-2465 3868 0 255 0 0
-2457.19 3866.75 -4.53562 0 255 0
0 0 0 255 0 0
44.9614 50.5744 2.40331 0 255 0
-1391 1968 0 255 0 0
-1407.29 1947.49 5.60382 0 255 0
-1365 -1841 0 255 0 0
-1380 -1868.26 -0.767118 0 255 0
