ply
format ascii 1.0
comment made by ViMouse software
comment This file is a saved stereo-reconstruction
element vertex 12
property float x
property float y
property float z
property uchar red
property uchar green
property uchar blue
element face 0
property list uchar int vertex_index
property uchar red
property uchar green
property uchar blue
element edge 14
property int vertex1
property int vertex2
property uchar red
property uchar green
property uchar blue
end_header
-100 -100 -100 0 0 255
100 -100 -100 0 0 255
100 100 -100 0 0 255
-100 100 -100 0 0 255
-100 -100 100 0 0 255
100 -100 100 0 0 255
100 100 100 0 0 255
-100 100 100 0 0 255
2 1.1 1.5 255 255 255
-598 -448.9 -398.5 255 255 255
100 74.6 66.8333 0 255 0
-100 -75.4 -66.5 0 255 0
0 1 0 0 255
1 2 0 0 255
2 3 0 0 255
3 0 0 0 255
4 5 0 0 255
5 6 0 0 255
6 7 0 0 255
7 4 0 0 255
0 4 0 0 255
1 5 0 0 255
2 6 0 0 255
3 7 0 0 255
8 9 255 255 255
10 11 0 255 0
